<?xml version="1.0" standalone="no"?>
<!DOCTYPE svg PUBLIC "-//W3C//DTD SVG 20010904//EN"
 "http://www.w3.org/TR/2001/REC-SVG-20010904/DTD/svg10.dtd">
<svg version="1.0" xmlns="http://www.w3.org/2000/svg"
 width="228.000000pt" height="221.000000pt" viewBox="0 0 228.000000 221.000000"
 preserveAspectRatio="xMidYMid meet">
<metadata>
Created by potrace 1.16, written by Peter Selinger 2001-2019
</metadata>
<g transform="translate(0.000000,221.000000) scale(0.100000,-0.100000)"
fill="#000000" stroke="none">
<path d="M1565 2203 c17 -3 44 -15 60 -27 17 -12 46 -28 65 -36 19 -8 50 -23
69 -34 30 -18 32 -21 15 -27 -12 -6 -2 -8 31 -7 37 0 64 -7 103 -27 85 -46
201 -51 330 -16 l42 12 0 84 0 85 -372 -1 c-205 -1 -359 -4 -343 -6z"/>
<path d="M0 1695 l0 -325 578 0 578 0 23 -26 c28 -32 55 -28 59 10 2 18 0 26
-7 21 -7 -4 -11 3 -11 16 0 17 3 19 14 10 10 -9 15 -8 19 3 3 8 1 17 -6 20
-17 6 14 27 31 21 7 -3 10 0 7 6 -8 11 -46 2 -58 -15 -5 -6 -7 0 -4 16 2 15 0
25 -4 22 -5 -3 -9 0 -9 5 0 9 226 18 278 12 9 -2 12 44 12 199 0 241 -10 277
-87 319 -16 8 -217 11 -717 11 l-696 0 0 -325z m921 166 c-2 -64 0 -91 8 -91
6 0 14 6 16 13 2 6 10 26 16 42 7 17 13 34 13 38 2 13 29 27 54 27 28 0 28 -7
-2 -31 -13 -10 -29 -34 -35 -51 l-11 -33 25 30 c14 17 25 33 25 38 0 17 31 5
39 -15 7 -19 9 -17 14 18 10 56 20 68 51 60 27 -7 36 -26 12 -26 -14 0 -36
-48 -36 -78 0 -11 10 -6 33 16 18 18 37 29 42 25 4 -5 5 0 2 10 -4 10 -3 16 2
13 5 -3 14 1 21 9 14 17 46 20 55 6 3 -5 -4 -12 -15 -16 -22 -7 -54 -59 -48
-77 3 -7 15 5 27 26 26 41 54 45 59 7 3 -18 0 -22 -11 -18 -10 4 -22 -4 -32
-19 -20 -30 -55 -29 -70 3 -11 21 -11 21 -23 2 -16 -25 -36 -24 -73 3 l-30 22
-22 -28 c-18 -22 -28 -27 -44 -22 -12 4 -24 2 -28 -4 -10 -15 -41 -12 -56 7
-10 11 -14 45 -14 108 0 88 1 92 20 85 18 -7 20 -15 16 -99z m-662 79 c2 0 1
-19 -2 -42 -7 -54 -37 -93 -71 -93 -24 1 -26 -2 -26 -43 0 -36 -3 -43 -17 -40
-15 3 -18 17 -21 99 l-3 96 31 6 c17 4 33 13 36 21 4 11 13 12 37 5 18 -5 34
-9 36 -9z m521 -7 l1 -28 15 28 c18 34 69 39 79 7 7 -22 -11 -96 -25 -105 -13
-8 -50 4 -50 15 0 5 6 7 14 4 11 -4 18 6 26 36 13 46 5 66 -13 35 -28 -47 -46
-103 -46 -142 -1 -43 -11 -53 -34 -32 -9 9 -10 33 -5 88 3 42 7 86 7 99 1 33
31 28 31 -5z"/>
<path d="M1180 1250 c-35 -37 -39 -77 -11 -111 17 -21 29 -24 95 -26 54 -2 76
1 76 10 0 7 5 4 11 -6 10 -18 12 -18 30 -1 17 15 19 15 14 2 -7 -16 -4 -16
144 -4 44 4 54 26 12 26 -16 0 -33 -5 -36 -10 -4 -6 -11 -7 -17 -4 -6 4 -5 10
3 16 11 8 10 9 -2 5 -9 -3 -33 -2 -53 3 -24 5 -36 4 -36 -3 0 -5 -9 -2 -19 7
-13 12 -21 14 -26 6 -4 -7 -22 -9 -51 -4 -34 5 -44 3 -44 -7 0 -11 -2 -11 -8
-2 -12 19 -2 83 13 83 7 0 16 -6 18 -12 4 -10 6 -10 6 0 1 6 10 12 22 12 13 0
18 4 13 12 -4 6 -3 8 4 4 6 -3 9 -23 6 -44 l-4 -37 10 33 c13 38 46 45 53 10
l4 -23 2 23 c1 19 6 22 45 22 26 0 46 5 49 13 4 10 6 10 6 0 1 -14 32 -17 69
-7 l23 7 -27 13 c-18 10 -82 16 -195 21 l-168 6 -31 -33z"/>
<path d="M0 840 l0 -230 130 0 c80 0 130 4 130 10 0 6 58 10 154 10 93 0 157
-4 161 -10 4 -6 80 -10 195 -10 l190 0 32 29 33 29 5 201 5 201 -517 0 -518 0
0 -230z"/>
<path d="M1193 1058 c-50 -24 -54 -112 -6 -143 23 -15 35 -16 97 -7 42 6 52 9
24 8 -31 -2 -52 1 -59 10 -6 8 -7 14 -2 14 5 0 9 18 9 40 -1 33 2 40 18 40 12
0 16 5 12 15 -3 9 -1 15 7 14 6 -1 23 -1 37 0 20 1 22 3 10 11 -20 13 -119 11
-147 -2z"/>
<path d="M1181 841 c-14 -12 -25 -36 -28 -60 -5 -34 -2 -43 22 -65 25 -23 33
-25 132 -24 93 0 104 2 100 17 -3 12 2 16 21 15 14 0 28 -7 30 -14 3 -9 -1
-11 -12 -7 -9 4 -16 3 -16 -2 0 -5 18 -8 40 -8 22 1 37 3 35 6 -3 2 2 12 11
22 14 15 14 17 -3 15 -10 0 -24 -8 -31 -16 -12 -13 -13 -13 -8 4 5 13 2 17 -9
12 -10 -4 -20 5 -30 27 -14 30 -15 30 -10 5 5 -26 3 -28 -25 -28 -22 0 -30 5
-31 18 0 13 -2 14 -6 2 -7 -17 -29 -40 -38 -40 -3 0 -3 5 0 10 3 6 -1 10 -9
10 -9 0 -16 -4 -16 -10 0 -5 -8 -10 -17 -10 -15 0 -16 2 -3 10 13 9 13 10 0
10 -9 0 -20 -4 -26 -10 -6 -6 -9 -1 -9 15 1 14 5 28 10 32 4 5 5 2 1 -4 -4 -7
-2 -13 3 -13 6 0 11 14 11 30 0 19 5 30 13 29 24 -3 38 1 32 10 -3 5 0 13 6
17 8 4 9 3 5 -4 -4 -7 -1 -12 6 -12 10 0 10 -2 1 -8 -7 -4 -9 -13 -4 -21 6
-10 10 -9 15 5 6 16 8 16 16 4 8 -12 10 -9 11 10 0 23 1 23 9 5 7 -17 9 -17 9
-2 1 15 12 22 34 18 5 -1 6 3 3 8 -7 11 -146 14 -146 3 0 -5 6 -14 13 -22 7
-9 4 -8 -8 2 -34 27 -78 31 -104 9z"/>
<path d="M1265 652 c-53 -5 -76 -12 -70 -22 3 -5 0 -7 -8 -4 -8 3 -18 -6 -25
-21 -15 -33 -15 -65 0 -65 6 0 8 -3 5 -7 -4 -3 3 -17 15 -30 21 -22 27 -23
180 -23 123 0 163 3 173 14 12 12 11 15 -8 20 -12 3 -50 6 -83 6 -93 0 -124 9
-125 34 0 18 -2 17 -10 -6 -10 -25 -36 -44 -47 -33 -3 3 0 5 6 5 7 0 6 12 -4
36 -18 43 -14 63 8 41 10 -11 19 -12 25 -6 6 6 56 11 112 13 85 1 101 -1 101
-14 0 -13 1 -13 10 0 6 10 5 17 -6 23 -8 5 -12 12 -9 17 7 11 -179 29 -240 22z"/>
<path d="M1053 453 c-20 -8 -15 -23 7 -23 13 0 20 -7 20 -20 0 -11 4 -20 9
-20 14 0 4 -90 -14 -116 -9 -14 -29 -27 -45 -31 -17 -3 -30 -9 -30 -14 0 -5
-76 -9 -170 -9 -161 0 -170 1 -170 19 0 11 5 21 10 23 16 5 -15 74 -36 82 -9
4 -25 4 -34 1 -21 -7 -45 -59 -42 -92 l2 -23 -154 0 -153 0 -6 42 c-4 27 -14
49 -27 60 -28 22 -32 22 -61 -1 -17 -14 -23 -29 -24 -62 l-1 -44 -67 3 -67 4
0 -116 0 -116 1143 2 c628 2 949 4 713 5 l-428 3 7 88 c3 48 9 97 12 110 5 22
4 22 -107 22 -86 0 -115 3 -126 15 -9 8 -21 15 -27 15 -7 0 -4 -5 7 -11 15 -9
16 -13 5 -20 -12 -8 -12 -10 0 -18 15 -10 8 -41 -9 -41 -6 0 -8 5 -5 10 3 6
-1 10 -9 10 -9 0 -16 -5 -16 -11 0 -8 -5 -8 -15 1 -8 7 -15 19 -15 26 0 8 6
11 15 8 8 -4 15 -1 15 5 0 6 -4 11 -10 11 -5 0 -10 5 -10 10 0 6 7 10 15 10 8
0 15 5 15 11 0 11 -15 4 -42 -19 -10 -8 -18 -10 -18 -5 0 6 12 19 27 28 22 14
32 16 55 7 15 -5 28 -7 28 -2 0 11 -56 23 -69 16 -10 -7 -22 58 -22 117 0 26
-4 37 -14 37 -8 0 -15 5 -15 10 0 10 -26 12 -47 3z"/>
</g>
</svg>
